WWE Smackdown  01 07011 in flv format(7 parts). this is complete show. please seed and comment..

details of 1 of 7 parts of files are:


Video
Format                           : AVC
Format/Info                      : Advanced Video Codec
Format profile                   : Main@L3.0
Format settings, CABAC           : Yes
Format settings, ReFrames        : 3 frames
Format settings, GOP             : M=1, N=44
Codec ID                         : 7
Duration                         : 13mn 39s
Bit rate                         : 700 Kbps
Width                            : 624 pixels
Height                           : 320 pixels
Display aspect ratio             : 1.950
Frame rate mode                  : Constant
Frame rate                       : 29.970 fps
Color space                      : YUV
Chroma subsampling               : 4:2:0
Bit depth                        : 8 bits
Scan type                        : Progressive
Bits/(Pixel*Frame)               : 0.117
Stream size                      : 68.5 MiB (84%)

Audio
Format                           : AAC
Format/Info                      : Advanced Audio Codec
Format profile                   : LC
Codec ID                         : 10
Duration                         : 13mn 39s
Bit rate                         : 129 Kbps
Channel(s)                       : 2 channels
Channel positions                : Front: L R
Sampling rate                    : 44.1 KHz
Compression mode                 : Lossy
Stream size                      : 12.6 MiB (15%)
